<?xml version="1.0" standalone="no"?>
<!DOCTYPE svg PUBLIC "-//W3C//DTD SVG 20010904//EN"
 "http://www.w3.org/TR/2001/REC-SVG-20010904/DTD/svg10.dtd">
<svg version="1.0" xmlns="http://www.w3.org/2000/svg"
 width="1280.000000pt" height="640.000000pt" viewBox="0 0 1280.000000 640.000000"
 preserveAspectRatio="xMidYMid meet">
<metadata>
Created by potrace 1.15, written by Peter Selinger 2001-2017
</metadata>
<g transform="translate(0.000000,640.000000) scale(0.100000,-0.100000)"
fill="#000000" stroke="none">
<path d="M5578 4273 c-20 -3 -28 -10 -28 -24 0 -16 -7 -19 -50 -19 l-50 0 0
-75 0 -75 118 1 c64 0 113 2 107 5 -6 2 -9 37 -7 85 2 45 0 85 -5 89 -12 11
-54 17 -85 13z"/>
<path d="M3150 4261 c0 -6 -7 -11 -15 -11 -8 0 -20 -10 -26 -22 -6 -13 -23
-35 -36 -49 -24 -26 -24 -28 -8 -53 18 -27 39 -34 50 -16 9 14 92 13 97 -2 3
-8 13 -8 36 3 32 14 33 15 30 74 l-3 60 -50 3 c-27 2 -55 8 -62 14 -9 7 -13 7
-13 -1z"/>
<path d="M9590 4241 c0 -28 -3 -31 -30 -31 -27 0 -30 -3 -30 -30 0 -27 3 -30
30 -30 27 0 30 -3 30 -31 0 -28 2 -30 33 -27 27 2 33 8 35 31 3 21 9 27 28 27
20 0 24 5 24 30 0 25 -4 30 -24 30 -19 0 -25 6 -28 28 -2 22 -8 28 -35 30 -31
3 -33 1 -33 -27z"/>
<path d="M9354 4232 c-106 -40 -128 -67 -85 -106 19 -17 23 -17 68 -2 92 32
138 59 141 85 4 24 -20 52 -42 50 -6 0 -43 -13 -82 -27z"/>
<path d="M9797 4254 c-14 -14 -7 -35 11 -32 9 2 17 10 17 17 0 16 -18 25 -28
15z m23 -14 c0 -5 -4 -10 -10 -10 -5 0 -10 5 -10 10 0 6 5 10 10 10 6 0 10 -4
10 -10z"/>
<path d="M5137 4243 c-4 -3 -3 -11 3 -18 5 -6 10 -51 12 -101 3 -89 3 -89 31
-92 l27 -3 0 95 c0 53 4 98 10 101 19 12 -1 25 -39 25 -21 0 -41 -3 -44 -7z"/>
<path d="M5740 4231 c-21 -40 -7 -174 21 -205 24 -26 53 156 33 208 -8 22 -41
20 -54 -3z"/>
<path d="M9976 4243 c-3 -3 -3 -25 1 -49 4 -35 2 -49 -12 -64 -35 -39 6 -99
58 -86 15 3 27 11 27 17 0 8 -5 7 -15 -1 -19 -15 -61 -6 -69 16 -21 55 48 65
86 13 12 -16 27 -29 32 -29 8 0 8 3 1 8 -6 4 -18 19 -28 35 -11 17 -26 27 -42
27 -22 0 -25 4 -25 34 0 19 5 38 10 41 15 9 12 32 -4 38 -8 3 -17 3 -20 0z"/>
<path d="M2908 4233 c-18 -3 -28 -10 -28 -21 0 -14 -8 -16 -49 -14 l-49 4 -4
-81 -3 -81 110 0 110 0 -3 95 c-3 71 -7 95 -17 95 -7 0 -19 2 -27 3 -7 2 -25
2 -40 0z"/>
<path d="M3361 4214 c-12 -15 -21 -31 -21 -36 0 -24 35 -71 72 -98 l40 -30 28
20 c44 31 80 79 80 106 0 48 -67 83 -98 52 -9 -9 -15 -9 -24 0 -20 20 -55 13
-77 -14z"/>
<path d="M6660 4189 c0 -41 -5 -57 -31 -89 -49 -61 -38 -71 73 -68 108 3 118
14 69 71 -26 29 -31 43 -31 86 l0 51 -40 0 -40 0 0 -51z"/>
<path d="M7137 4233 c-4 -3 -7 -17 -7 -30 0 -18 -5 -23 -25 -23 -21 0 -25 -5
-25 -30 0 -25 4 -30 24 -30 19 0 25 -6 28 -27 2 -23 8 -29 36 -31 30 -3 32 -1
32 27 0 28 3 31 30 31 27 0 30 3 30 29 0 25 -4 30 -27 33 -22 2 -29 9 -31 31
-3 22 -8 27 -31 27 -15 0 -31 -3 -34 -7z"/>
<path d="M8005 4216 c-33 -33 -40 -67 -21 -104 41 -80 166 -56 166 32 0 48 -8
65 -41 81 -41 22 -77 18 -104 -9z"/>
<path d="M11620 4210 c0 -27 -3 -30 -30 -30 -27 0 -30 -3 -30 -30 0 -27 3 -30
30 -30 27 0 30 -3 30 -30 0 -28 3 -30 35 -30 32 0 35 2 35 30 0 27 3 30 30 30
27 0 30 3 30 30 0 27 -3 30 -30 30 -27 0 -30 3 -30 30 0 28 -3 30 -35 30 -32
0 -35 -2 -35 -30z"/>
<path d="M11914 4211 c-73 -75 -78 -86 -58 -116 16 -25 44 -34 44 -15 0 14 76
13 98 -1 15 -9 24 -8 46 6 25 16 27 22 24 74 l-3 56 -50 3 c-27 2 -55 8 -61
13 -8 6 -21 0 -40 -20z"/>
<path d="M5293 4223 c-22 -4 -23 -9 -23 -94 l0 -90 68 3 67 3 3 83 c3 81 2 82
-23 92 -27 10 -51 11 -92 3z"/>
<path d="M7556 4201 c-77 -29 -104 -57 -86 -90 14 -28 45 -27 127 6 83 32 93
39 93 67 0 52 -33 56 -134 17z"/>
<path d="M8222 4220 c-22 -9 -23 -14 -20 -92 l3 -83 68 -3 67 -3 0 89 0 90
-31 6 c-40 8 -59 7 -87 -4z"/>
<path d="M50 4211 c-24 -7 -25 -11 -28 -94 l-3 -87 71 0 70 0 0 84 c0 47 -3
87 -8 90 -16 9 -78 14 -102 7z"/>
<path d="M282 4209 c-12 -5 -26 -19 -31 -31 -5 -13 -18 -32 -30 -42 -26 -23
-26 -34 -1 -66 15 -20 21 -23 31 -12 16 15 101 16 116 1 7 -7 16 -5 28 8 10
10 21 16 24 13 3 -3 7 23 9 58 3 67 4 65 -55 62 -17 -1 -40 3 -50 8 -10 6 -27
6 -41 1z"/>
<path d="M743 4213 c-19 -7 -15 -38 7 -58 l20 -18 -21 -23 c-11 -12 -19 -30
-17 -41 5 -26 41 -28 63 -3 l18 20 23 -21 c13 -12 30 -19 38 -16 20 8 21 41 1
57 -8 7 -15 18 -15 25 0 7 7 18 15 25 20 17 19 46 -2 54 -10 4 -25 -2 -39 -15
-22 -20 -26 -21 -41 -7 -26 21 -36 26 -50 21z"/>
<path d="M6830 4200 c-31 -31 -26 -74 15 -114 57 -58 67 -60 114 -25 23 16 49
45 58 64 16 34 16 36 -4 63 -22 30 -57 40 -78 22 -10 -8 -19 -8 -34 -1 -29 16
-49 13 -71 -9z"/>
<path d="M11330 4191 c0 -28 -3 -31 -30 -31 -27 0 -30 -3 -30 -30 0 -27 3 -30
30 -30 27 0 30 -3 30 -31 0 -28 2 -30 33 -27 27 2 33 8 35 31 3 21 9 27 28 27
20 0 24 5 24 30 0 25 -4 30 -24 30 -19 0 -25 6 -28 28 -2 22 -8 28 -35 30 -31
3 -33 1 -33 -27z"/>
<path d="M493 4194 c-3 -8 4 -25 17 -40 l23 -24 -23 -24 c-41 -45 0 -78 45
-36 l22 20 18 -20 c10 -11 27 -20 37 -20 29 0 33 28 8 56 l-23 24 22 23 c13
15 19 30 15 40 -8 21 -37 22 -54 2 -7 -8 -18 -15 -25 -15 -7 0 -18 7 -25 15
-16 20 -49 19 -57 -1z"/>
<path d="M1040 4201 c0 -6 -24 -36 -53 -68 -62 -67 -101 -122 -94 -129 8 -9
60 22 88 53 91 99 110 125 98 139 -13 16 -39 19 -39 5z"/>
<path d="M5882 4172 c-57 -72 -66 -119 -27 -157 33 -34 92 -34 129 0 14 13 26
34 26 46 0 32 -27 82 -64 118 l-33 32 -31 -39z"/>
<path d="M7789 4193 c-15 -7 -32 -26 -39 -42 -6 -16 -18 -32 -26 -35 -18 -7
-17 -36 1 -60 9 -12 20 -16 32 -11 25 10 103 12 103 3 0 -13 34 -8 53 6 15 11
17 25 15 72 l-3 59 -50 3 c-27 2 -52 7 -55 11 -3 4 -17 1 -31 -6z"/>
<path d="M9802 4187 c-1 -16 -9 -35 -17 -43 -21 -21 -19 -50 5 -74 24 -24 53
-26 71 -3 13 15 12 15 -9 4 -31 -17 -75 10 -70 42 3 19 8 22 38 19 34 -3 42
-9 66 -49 7 -10 15 -15 19 -11 4 3 -3 16 -14 27 -12 12 -21 26 -21 31 0 6 -13
10 -29 10 -27 0 -30 4 -34 38 -3 28 -4 30 -5 9z"/>
<path d="M10984 4197 c-3 -8 -4 -39 -2 -68 l3 -54 87 -3 c85 -3 88 -2 93 21 4
13 5 43 3 68 l-3 44 -88 3 c-68 2 -89 0 -93 -11z"/>
<path d="M7370 4191 c0 -4 -26 -37 -58 -72 -90 -99 -107 -129 -76 -129 17 0
174 158 174 175 0 13 -20 35 -32 35 -4 0 -8 -4 -8 -9z"/>
<path d="M1171 4156 c-95 -37 -117 -61 -86 -96 24 -26 29 -26 122 11 72 28
103 50 103 71 0 10 -38 48 -47 48 -5 -1 -46 -16 -92 -34z"/>
<path d="M12278 4183 c-18 -3 -28 -10 -28 -21 0 -14 -10 -17 -47 -17 l-48 0
-3 -77 -3 -78 113 0 113 0 -3 87 c-2 49 -6 91 -10 94 -11 10 -54 16 -84 12z"/>
<path d="M3658 4143 c-2 -22 -9 -29 -30 -31 -23 -3 -28 -8 -28 -32 0 -24 5
-29 28 -32 21 -2 28 -9 30 -30 3 -23 8 -28 32 -28 24 0 29 5 32 28 2 21 9 28
31 30 22 3 27 8 27 32 0 24 -5 29 -27 32 -22 2 -29 9 -31 31 -3 22 -8 27 -32
27 -24 0 -29 -5 -32 -27z"/>
<path d="M9095 4149 c-106 -42 -120 -52 -120 -83 0 -58 42 -58 165 2 63 31 76
60 38 86 -27 19 -21 19 -83 -5z"/>
<path d="M5013 4143 c-22 -4 -23 -10 -25 -96 l-2 -92 -3 78 -4 77 -44 0 -43 0
-4 -80 -3 -80 110 0 110 0 -3 95 c-2 64 -7 95 -15 95 -7 0 -21 2 -32 4 -11 2
-30 2 -42 -1z"/>
<path d="M2642 4108 c-25 -25 -9 -218 18 -218 15 0 30 64 30 130 0 68 -9 100
-30 100 -3 0 -11 -5 -18 -12z"/>
<path d="M1330 4092 c0 -10 -5 -23 -11 -29 -5 -5 -9 -38 -7 -74 3 -64 3 -64
35 -67 20 -2 33 -10 36 -20 4 -15 5 -15 6 1 1 12 10 17 31 17 17 0 30 5 30 13
0 6 6 3 12 -8 15 -28 48 -63 79 -86 26 -19 27 -19 68 11 23 17 49 46 58 65 15
31 15 36 -1 60 -22 33 -42 41 -76 28 -18 -7 -33 -7 -44 -1 -26 15 -64 1 -80
-30 -15 -26 -15 -25 -16 36 0 34 -4 62 -10 62 -5 0 -10 9 -10 20 0 17 -7 20
-50 20 -41 0 -50 -3 -50 -18z"/>
<path d="M10123 4069 c-11 -4 -25 -21 -32 -37 -7 -17 -19 -33 -27 -36 -20 -8
-17 -50 4 -69 14 -13 21 -14 30 -5 15 15 91 11 111 -5 10 -9 17 -7 28 8 7 11
17 18 21 15 4 -3 8 23 10 58 2 44 -1 63 -10 66 -28 9 -116 12 -135 5z"/>
<path d="M12478 4073 c-16 -4 -18 -17 -18 -94 l0 -90 68 3 67 3 3 83 c3 81 2
82 -23 92 -27 10 -66 11 -97 3z"/>
<path d="M6073 4054 c-85 -42 -56 -164 39 -164 99 0 123 128 33 166 -41 17
-33 17 -72 -2z"/>
<path d="M7412 4054 c-13 -6 -32 -25 -42 -42 -10 -16 -23 -33 -29 -36 -15 -10
-13 -37 5 -61 12 -16 18 -18 34 -7 24 14 100 16 100 2 0 -5 9 -10 20 -10 11 0
20 5 20 10 0 6 7 10 15 10 13 0 15 11 13 63 l-3 62 -50 3 c-27 2 -52 7 -55 11
-3 4 -16 2 -28 -5z"/>
<path d="M9188 4045 c-33 -18 -52 -72 -39 -108 22 -58 103 -76 146 -32 70 70
-20 188 -107 140z"/>
<path d="M8018 4019 c-81 -32 -98 -51 -78 -89 15 -28 51 -25 140 13 58 25 76
38 78 55 4 29 -14 52 -42 51 -11 0 -56 -14 -98 -30z"/>
<path d="M11767 4016 c-73 -96 -58 -181 32 -181 94 0 119 72 58 161 -19 27
-41 50 -49 52 -8 2 -27 -13 -41 -32z"/>
<path d="M5464 3962 c-59 -67 -104 -125 -104 -136 0 -3 8 -6 17 -6 19 0 173
157 173 176 0 6 -6 16 -13 22 -9 8 -27 -6 -73 -56z"/>
<path d="M7010 4021 c-24 -7 -25 -10 -25 -96 l0 -90 65 0 65 0 3 84 c2 46 -1
88 -5 92 -13 12 -76 18 -103 10z"/>
<path d="M9390 4010 c0 -11 -4 -20 -9 -20 -12 0 -20 -101 -10 -128 8 -21 14
-23 71 -20 l63 3 3 64 c2 36 -2 69 -7 74 -6 6 -11 19 -11 29 0 15 -9 18 -50
18 -43 0 -50 -3 -50 -20z m57 4 c-3 -3 -12 -4 -19 -1 -8 3 -5 6 6 6 11 1 17
-2 13 -5z"/>
<path d="M9628 4003 c-2 -22 -9 -29 -30 -31 -24 -3 -28 -8 -28 -33 0 -26 3
-29 30 -29 27 0 30 -3 30 -31 0 -28 2 -30 33 -27 27 2 32 7 32 28 0 20 6 26
28 28 22 3 27 8 27 32 0 24 -5 29 -27 32 -22 2 -28 8 -28 28 0 21 -5 26 -32
28 -28 3 -32 0 -35 -25z"/>
<path d="M11516 3998 c-19 -38 -21 -141 -3 -156 6 -5 37 -9 67 -8 l55 1 3 64
c2 43 -2 75 -13 97 -14 30 -21 34 -55 34 -33 0 -41 -4 -54 -32z m67 5 c-7 -2
-19 -2 -25 0 -7 3 -2 5 12 5 14 0 19 -2 13 -5z"/>
<path d="M12000 3980 c0 -41 -5 -55 -31 -84 -41 -48 -36 -69 21 -78 51 -7 138
0 146 13 6 11 -20 61 -40 78 -11 9 -16 31 -16 67 l0 54 -40 0 -40 0 0 -50z"/>
<path d="M1117 3988 c-61 -25 -79 -36 -83 -55 -5 -18 -1 -31 14 -45 l20 -21
88 35 c99 40 114 54 96 92 -15 33 -36 32 -135 -6z"/>
<path d="M2517 4000 c-8 -11 -32 -40 -53 -63 -57 -61 -84 -98 -84 -114 0 -26
55 13 124 89 69 76 76 92 50 102 -22 8 -21 8 -37 -14z"/>
<path d="M3135 3998 c-24 -19 -27 -19 -44 -4 -40 36 -81 2 -43 -36 l20 -21
-20 -28 c-36 -49 6 -84 47 -39 l18 20 22 -20 c26 -24 38 -25 55 -5 11 13 9 20
-10 40 l-22 24 20 26 c36 46 3 79 -43 43z"/>
<path d="M11033 4006 c-12 -6 -28 -23 -34 -39 -6 -15 -20 -32 -30 -38 -24 -12
-24 -41 -1 -62 22 -20 42 -22 42 -4 0 15 62 12 96 -5 17 -8 28 -6 48 7 25 16
27 23 24 74 l-3 56 -50 3 c-27 2 -54 7 -60 11 -5 4 -20 2 -32 -3z"/>
<path d="M644 3982 c-34 -43 -54 -89 -54 -121 0 -58 85 -92 138 -55 36 25 44
59 26 102 -14 34 -71 103 -83 101 -4 0 -15 -12 -27 -27z"/>
<path d="M7645 3973 c-16 -21 -46 -56 -68 -78 -21 -22 -45 -52 -53 -67 -36
-70 63 2 151 108 33 40 34 42 16 58 -17 16 -20 14 -46 -21z"/>
<path d="M324 3986 c-3 -7 -4 -38 -2 -67 l3 -54 84 -3 c61 -2 87 1 92 10 13
20 11 102 -3 116 -18 18 -167 16 -174 -2z"/>
<path d="M3251 3981 c-16 -30 -13 -97 5 -115 17 -17 138 -23 162 -7 9 5 12 27
10 72 l-3 64 -82 3 c-73 2 -83 1 -92 -17z"/>
<path d="M3762 3933 l3 -68 85 0 85 0 3 68 3 67 -91 0 -91 0 3 -67z"/>
<path d="M8230 3947 c0 -42 -5 -58 -21 -73 -12 -10 -27 -31 -35 -47 -13 -25
-13 -28 3 -35 30 -12 171 -8 184 5 10 10 6 22 -19 57 -26 36 -32 54 -32 95 l0
51 -40 0 -40 0 0 -53z"/>
<path d="M8880 3973 c-12 -16 -36 -44 -53 -63 -70 -76 -94 -120 -68 -120 11 0
93 77 146 138 31 35 35 45 25 57 -17 21 -25 19 -50 -12z"/>
<path d="M5180 3940 c0 -41 -5 -55 -30 -83 -54 -62 -40 -77 70 -77 109 0 121
11 70 70 -24 29 -29 44 -30 88 l0 52 -40 0 -40 0 0 -50z"/>
<path d="M5728 3983 c-18 -3 -28 -10 -28 -21 0 -14 -10 -17 -47 -17 l-48 0 -3
-77 -3 -78 116 0 c84 0 114 3 109 11 -4 7 -6 47 -5 90 2 77 2 79 -24 89 -14 6
-29 9 -33 9 -4 -1 -19 -4 -34 -6z"/>
<path d="M124 3952 c-39 -15 -78 -33 -88 -41 -24 -20 -20 -59 8 -72 19 -9 38
-5 102 21 89 35 104 45 104 70 0 18 -30 51 -46 49 -5 0 -41 -13 -80 -27z"/>
<path d="M3511 3939 c-78 -106 -52 -190 53 -176 73 10 96 68 55 137 -25 41
-59 80 -71 80 -4 0 -21 -18 -37 -41z"/>
<path d="M6652 3973 c-9 -3 -10 -9 -3 -17 6 -7 12 -55 13 -107 3 -93 3 -94 28
-94 25 0 25 1 28 94 1 52 7 100 13 107 16 19 -42 32 -79 17z"/>
<path d="M2790 3962 c0 -4 -31 -43 -70 -86 -38 -43 -70 -83 -70 -89 0 -6 -16
-7 -39 -3 -21 3 -53 3 -70 0 l-32 -7 3 -90 3 -90 56 0 c31 0 62 4 68 7 7 4 11
39 11 87 0 60 3 79 14 79 13 0 114 98 155 151 15 20 17 29 9 37 -14 14 -38 16
-38 4z"/>
<path d="M2870 3919 c0 -41 -5 -57 -31 -89 -17 -21 -29 -45 -26 -53 7 -19 90
-31 151 -22 56 9 60 28 16 78 -25 29 -30 43 -30 86 l0 51 -40 0 -40 0 0 -51z"/>
<path d="M4810 3961 c0 -4 -26 -37 -58 -72 -89 -98 -107 -129 -76 -129 15 0
131 113 161 158 12 18 13 25 3 37 -14 16 -30 20 -30 6z"/>
<path d="M6842 3953 c2 -10 10 -18 18 -18 22 0 18 29 -3 33 -14 3 -18 -1 -15
-15z m28 3 c0 -3 -4 -8 -10 -11 -5 -3 -10 -1 -10 4 0 6 5 11 10 11 6 0 10 -2
10 -4z"/>
<path d="M11236 3945 c-11 -30 -6 -102 8 -114 9 -8 43 -11 93 -9 l78 3 0 65 0
65 -86 3 c-72 2 -88 0 -93 -13z"/>
<path d="M5938 3918 c-38 -50 -48 -74 -48 -112 0 -62 66 -94 129 -61 45 23 55
79 24 125 -22 33 -65 80 -74 80 -4 0 -18 -15 -31 -32z"/>
<path d="M7746 3919 c-35 -41 -34 -83 3 -120 20 -20 39 -29 61 -29 43 0 90 47
90 90 0 45 -47 90 -93 90 -27 0 -41 -7 -61 -31z"/>
<path d="M9846 3922 c-79 -31 -97 -56 -67 -93 17 -21 21 -22 59 -11 22 7 65
23 97 37 53 24 56 27 53 58 -3 29 -6 32 -38 34 -19 1 -66 -11 -104 -25z"/>
<path d="M10294 3913 c-77 -101 -59 -183 41 -183 45 0 85 36 85 77 0 39 -66
143 -91 143 -3 0 -19 -16 -35 -37z"/>
<path d="M9030 3931 c0 -4 -26 -37 -58 -72 -89 -98 -107 -129 -76 -129 15 0
131 113 161 158 12 18 13 25 3 37 -14 16 -30 20 -30 6z"/>
<path d="M836 3917 c-14 -10 -17 -25 -14 -72 l3 -60 78 -3 c50 -2 84 1 93 9 9
7 14 31 14 65 0 42 -4 55 -19 64 -28 14 -134 13 -155 -3z"/>
<path d="M6851 3900 c-1 -14 -8 -34 -16 -44 -20 -26 -19 -49 3 -69 20 -18 67
-23 77 -8 3 6 -9 8 -29 4 -28 -4 -36 -1 -46 16 -14 27 -4 69 13 52 6 -6 21
-11 33 -11 15 0 29 -11 40 -29 10 -17 21 -28 26 -25 4 3 -1 15 -12 26 -11 12
-20 25 -20 29 0 4 -12 9 -27 11 -23 2 -29 9 -34 38 -5 27 -7 29 -8 10z"/>
<path d="M7203 3886 c-11 -6 -28 -25 -37 -43 -9 -18 -20 -33 -25 -33 -19 0
-23 -41 -5 -61 18 -20 44 -26 44 -9 0 14 76 13 98 -1 15 -9 24 -8 46 6 25 16
27 22 24 74 l-3 56 -55 3 c-30 2 -57 6 -60 10 -3 4 -15 3 -27 -2z"/>
<path d="M4012 3873 c2 -10 10 -18 18 -18 8 0 16 8 18 18 2 12 -3 17 -18 17
-15 0 -20 -5 -18 -17z m28 3 c0 -3 -4 -8 -10 -11 -5 -3 -10 -1 -10 4 0 6 5 11
10 11 6 0 10 -2 10 -4z"/>
<path d="M4926 3858 c-19 -38 -22 -143 -3 -155 13 -8 18 -10 41 -12 8 0 17 -9
19 -18 4 -17 5 -17 6 0 0 9 7 18 14 18 6 1 19 2 27 3 22 2 26 118 5 162 -14
30 -21 34 -55 34 -33 0 -41 -4 -54 -32z m67 5 c-7 -2 -19 -2 -25 0 -7 3 -2 5
12 5 14 0 19 -2 13 -5z"/>
<path d="M7952 3823 l3 -68 85 0 85 0 3 68 3 67 -91 0 -91 0 3 -67z"/>
<path d="M6147 3873 c-12 -11 -8 -36 8 -53 14 -16 14 -20 -2 -48 -16 -28 -17
-33 -2 -47 14 -14 18 -14 42 5 26 21 27 21 52 3 26 -19 32 -42 14 -60 -5 -5
-9 -38 -7 -74 3 -61 4 -63 33 -69 17 -4 47 -5 68 -2 l37 4 0 69 c0 37 -4 71
-10 74 -5 3 -10 15 -10 26 0 15 -7 19 -36 19 -27 0 -35 4 -31 14 3 8 -3 26
-14 40 l-20 26 20 26 c16 21 18 30 10 40 -15 19 -39 18 -61 -3 -17 -15 -19
-15 -36 0 -19 18 -44 22 -55 10z m186 -180 c-7 -2 -19 -2 -25 0 -7 3 -2 5 12
5 14 0 19 -2 13 -5z"/>
<path d="M12186 3865 c-9 -24 -7 -98 3 -113 5 -9 31 -12 92 -10 l84 3 0 65 0
65 -86 3 c-72 2 -88 0 -93 -13z"/>
<path d="M1660 3820 c-86 -34 -115 -61 -99 -91 17 -33 36 -33 126 2 97 37 120
63 88 99 -23 25 -24 25 -115 -10z"/>
<path d="M9135 3816 c-11 -22 -15 -53 -13 -92 3 -56 4 -59 33 -64 17 -4 47 -5
68 -2 l37 4 0 74 c0 43 -4 74 -10 74 -5 0 -10 9 -10 20 0 17 -7 20 -45 20 -40
0 -45 -3 -60 -34z m72 8 c-3 -3 -12 -4 -19 -1 -8 3 -5 6 6 6 11 1 17 -2 13 -5z"/>
<path d="M10000 3818 c-80 -32 -90 -40 -90 -76 0 -43 37 -47 125 -12 102 41
126 68 89 104 -21 21 -36 19 -124 -16z"/>
<path d="M12672 3838 c-15 -15 -17 -164 -2 -173 6 -3 10 -15 10 -26 0 -10 5
-19 10 -19 20 0 31 54 28 139 -2 67 -6 86 -18 89 -9 1 -21 -3 -28 -10z"/>
<path d="M1117 3822 c-32 -35 -21 -72 34 -124 l51 -48 44 31 c54 40 80 89 63
121 -7 13 -17 26 -23 30 -17 11 -61 9 -73 -3 -8 -8 -13 -8 -17 0 -11 17 -61
13 -79 -7z"/>
<path d="M4021 3820 c-1 -14 -8 -34 -16 -44 -20 -26 -19 -49 3 -69 20 -18 67
-23 77 -8 3 6 -9 8 -29 4 -28 -4 -36 -1 -46 16 -14 27 -4 69 13 52 6 -6 21
-11 33 -11 12 0 29 -11 38 -25 9 -14 21 -25 27 -25 5 0 1 10 -11 22 -11 12
-20 25 -20 29 0 4 -12 9 -27 11 -23 2 -29 9 -34 38 -5 27 -7 29 -8 10z"/>
<path d="M12470 3789 c0 -43 -5 -57 -30 -86 -45 -51 -40 -69 21 -77 64 -9 139
2 146 21 3 8 -9 32 -26 53 -26 32 -31 48 -31 89 l0 51 -40 0 -40 0 0 -51z"/>
<path d="M150 3821 c0 -6 -7 -11 -15 -11 -9 0 -25 -16 -36 -35 -12 -19 -25
-35 -29 -35 -16 0 -21 -39 -8 -59 14 -23 48 -29 48 -8 0 15 77 11 97 -5 8 -7
23 -5 43 4 30 13 31 15 28 73 l-3 60 -50 3 c-27 2 -55 8 -62 14 -9 7 -13 7
-13 -1z"/>
<path d="M7417 3824 c-14 -14 -7 -35 11 -32 9 2 17 10 17 17 0 16 -18 25 -28
15z m18 -14 c3 -5 1 -10 -4 -10 -6 0 -11 5 -11 10 0 6 2 10 4 10 3 0 8 -4 11
-10z"/>
<path d="M3847 3788 c-61 -82 -70 -126 -32 -163 49 -50 155 -18 155 46 0 32
-27 82 -64 118 l-34 33 -25 -34z"/>
<path d="M414 3797 c-3 -8 -4 -49 -2 -93 l3 -79 65 0 65 0 3 84 c2 61 -1 87
-10 92 -22 14 -118 11 -124 -4z"/>
<path d="M1400 3786 c0 -19 -6 -25 -27 -28 -23 -2 -29 -8 -31 -35 -3 -31 -1
-33 27 -33 28 0 31 -3 31 -31 0 -28 2 -30 33 -27 26 2 33 8 35 30 3 21 9 27
30 30 23 2 27 8 27 33 0 25 -4 30 -27 33 -22 3 -28 9 -28 28 0 21 -5 24 -35
24 -30 0 -35 -3 -35 -24z"/>
<path d="M3640 3760 c0 -43 -5 -59 -30 -90 -52 -66 -40 -80 70 -80 109 0 123
14 71 73 -24 26 -30 44 -33 88 l-3 54 -37 3 -38 3 0 -51z"/>
<path d="M7610 3760 c0 -39 -6 -58 -32 -95 -21 -30 -29 -48 -22 -55 15 -15 96
-23 148 -16 56 9 60 29 16 79 -25 29 -30 43 -30 86 l0 51 -40 0 -40 0 0 -50z"/>
<path d="M7422 3757 c-1 -16 -9 -35 -17 -43 -21 -21 -19 -50 5 -74 24 -24 40
-25 66 -5 18 14 17 14 -8 4 -24 -10 -31 -9 -48 6 -19 18 -24 56 -7 55 4 0 20
0 35 0 20 0 32 -8 46 -30 9 -17 21 -28 26 -25 14 9 -43 65 -67 65 -18 0 -22 7
-26 38 -3 28 -4 30 -5 9z"/>
<path d="M10992 3771 c-9 -5 -12 -27 -10 -72 l3 -64 78 -3 c50 -2 84 1 93 9
20 16 18 103 -2 123 -17 17 -138 23 -162 7z"/>
<path d="M2320 3718 c-1 -44 -6 -59 -30 -88 -53 -61 -37 -80 70 -80 107 0 123
19 70 80 -24 29 -29 44 -30 88 l0 52 -40 0 -40 0 0 -52z"/>
<path d="M2757 3744 c-11 -11 -8 -172 3 -179 6 -3 10 -15 10 -26 0 -10 4 -19
8 -19 18 0 33 78 30 150 -3 67 -5 75 -23 78 -12 2 -24 0 -28 -4z"/>
<path d="M11304 3737 c-3 -8 -4 -39 -2 -68 l3 -54 90 0 90 0 0 65 0 65 -88 3
c-68 2 -89 0 -93 -11z"/>
<path d="M8710 3710 c0 -27 -3 -30 -30 -30 -27 0 -30 -3 -30 -30 0 -27 3 -30
30 -30 27 0 30 -3 30 -30 0 -28 3 -30 35 -30 32 0 35 2 35 30 0 27 3 30 30 30
27 0 30 3 30 30 0 27 -3 30 -30 30 -27 0 -30 3 -30 30 0 28 -3 30 -35 30 -32
0 -35 -2 -35 -30z"/>
<path d="M4608 3703 c-62 -67 -75 -138 -32 -172 39 -31 89 -28 125 8 34 35 36
49 10 99 -17 31 -66 92 -75 92 -1 0 -14 -12 -28 -27z"/>
<path d="M4815 3698 c-59 -70 -70 -135 -29 -167 47 -37 123 -22 144 29 10 23
8 36 -8 72 -11 23 -33 56 -49 71 l-30 28 -28 -33z"/>
<path d="M1737 3713 c-4 -3 -7 -17 -7 -30 0 -18 -5 -23 -25 -23 -21 0 -25 -5
-25 -30 0 -25 4 -30 24 -30 19 0 25 -6 28 -27 2 -23 8 -29 36 -31 30 -3 32 -5
32 -44 0 -31 -7 -49 -30 -75 -16 -18 -30 -38 -30 -44 0 -26 130 -40 185 -19
25 9 25 11 11 38 -8 16 -22 34 -30 41 -9 8 -16 29 -16 50 0 69 -8 81 -51 81
-28 0 -39 4 -39 15 0 10 10 15 30 15 27 0 30 3 30 29 0 25 -4 30 -27 33 -22 2
-29 9 -31 31 -3 22 -8 27 -31 27 -15 0 -31 -3 -34 -7z"/>
<path d="M5835 3695 c-47 -46 -22 -134 41 -149 55 -14 114 35 114 94 0 12 -13
35 -29 51 -38 38 -91 40 -126 4z"/>
<path d="M6077 3693 c-4 -3 -7 -17 -7 -30 0 -17 -6 -23 -23 -23 -31 0 -34 -4
-29 -40 3 -24 9 -30 28 -30 19 0 24 -5 24 -25 0 -22 4 -25 35 -25 30 0 35 3
35 24 0 19 6 25 28 28 22 2 28 8 30 36 3 30 1 32 -27 32 -28 0 -31 3 -31 30 0
26 -4 30 -28 30 -16 0 -32 -3 -35 -7z"/>
<path d="M8946 3666 c-70 -92 -60 -169 25 -182 24 -3 44 1 67 15 26 17 32 27
32 57 0 19 -5 45 -11 57 -13 25 -70 87 -80 87 -4 0 -18 -15 -33 -34z"/>
<path d="M10034 3674 c-40 -39 -19 -90 59 -146 l28 -20 40 28 c70 48 87 104
44 144 -23 22 -29 23 -57 12 -20 -7 -37 -8 -49 -2 -27 15 -38 12 -65 -16z"/>
<path d="M10337 3683 c-37 -41 -16 -100 53 -146 l35 -24 37 24 c20 14 44 36
53 49 36 55 4 123 -52 110 -33 -8 -39 -8 -78 0 -23 4 -35 1 -48 -13z"/>
<path d="M5104 3653 c-16 -21 -46 -56 -67 -78 -21 -22 -45 -52 -53 -67 -13
-25 -13 -28 1 -28 18 0 75 51 140 126 43 49 44 52 26 68 -17 16 -20 14 -47
-21z"/>
<path d="M12251 3624 c-41 -56 -51 -116 -26 -144 40 -45 127 -32 153 23 11 23
10 33 -6 69 -20 42 -65 98 -81 98 -4 0 -22 -21 -40 -46z"/>
<path d="M7224 3638 c3 -13 6 -62 6 -110 0 -80 2 -87 22 -94 36 -11 49 20 47
107 -1 42 1 81 5 88 13 20 -4 31 -46 31 -37 0 -40 -2 -34 -22z"/>
<path d="M184 3616 c-3 -7 -4 -38 -2 -67 l3 -54 84 -3 c95 -3 101 0 101 65 0
71 -2 73 -96 73 -62 0 -86 -4 -90 -14z"/>
<path d="M1567 3623 c-4 -3 -7 -29 -7 -56 0 -41 -5 -55 -30 -84 -36 -40 -38
-59 -7 -67 36 -10 147 -7 168 4 17 10 18 13 5 39 -8 15 -22 33 -30 40 -9 8
-16 29 -16 50 0 65 -9 81 -44 81 -18 0 -36 -3 -39 -7z"/>
<path d="M57 3614 c-3 -4 -4 -26 0 -50 4 -32 2 -47 -11 -59 -44 -45 7 -112 68
-89 9 3 16 11 16 17 0 7 -4 7 -12 -1 -31 -31 -82 -3 -76 40 5 34 55 26 90 -15
14 -18 30 -29 34 -24 4 4 2 7 -4 7 -6 0 -18 14 -27 30 -11 21 -23 30 -40 30
-22 0 -25 4 -25 38 0 21 5 43 10 48 8 8 7 14 -3 22 -8 7 -17 9 -20 6z"/>
<path d="M4088 3613 c-26 -4 -28 -8 -30 -56 -1 -44 -2 -46 -5 -14 -4 38 -4 38
-46 35 l-42 -3 -5 -78 -5 -77 118 0 c92 0 116 3 110 13 -4 6 -8 47 -8 89 0 42
-3 79 -5 81 -9 8 -55 13 -82 10z m-31 -160 c-3 -10 -5 -4 -5 12 0 17 2 24 5
18 2 -7 2 -21 0 -30z"/>
<path d="M9116 3595 c-17 -45 1 -215 24 -215 17 0 31 66 28 142 -3 76 -5 83
-24 86 -13 2 -24 -4 -28 -13z"/>
<path d="M1296 3568 c-27 -39 -20 -68 29 -115 25 -24 53 -43 62 -43 24 0 81
47 99 82 31 59 -21 117 -81 90 -15 -7 -26 -8 -30 -2 -12 19 -63 11 -79 -12z"/>
<path d="M11107 3583 c-13 -12 -7 -33 14 -54 l21 -21 -21 -22 c-25 -27 -26
-39 -6 -56 13 -11 20 -9 38 9 27 25 40 26 57 6 7 -8 21 -15 32 -15 29 0 33 28
8 56 l-23 24 22 23 c24 26 20 57 -9 57 -9 0 -25 -9 -35 -20 l-18 -20 -22 20
c-21 20 -46 26 -58 13z"/>
<path d="M452 3560 c-22 -9 -23 -14 -20 -92 l3 -83 68 -3 67 -3 0 89 0 90 -31
6 c-40 8 -59 7 -87 -4z"/>
<path d="M7430 3530 c0 -25 -4 -30 -25 -30 -21 0 -25 -5 -25 -30 0 -25 4 -30
24 -30 19 0 25 -6 28 -27 2 -23 8 -29 36 -31 30 -3 32 -1 32 27 0 28 3 31 30
31 27 0 30 3 30 29 0 25 -4 30 -27 33 -22 2 -29 9 -31 31 -3 24 -8 27 -38 27
-31 0 -34 -2 -34 -30z"/>
<path d="M7696 3535 c-9 -14 -37 -47 -62 -73 -68 -71 -94 -129 -46 -103 34 18
163 163 160 180 -5 26 -34 24 -52 -4z"/>
<path d="M8604 3549 c-8 -14 11 -33 25 -25 6 4 11 14 11 22 0 16 -26 19 -36 3z
m26 -9 c0 -5 -4 -10 -10 -10 -5 0 -10 5 -10 10 0 6 5 10 10 10 6 0 10 -4 10
-10z"/>
<path d="M12557 3529 c-61 -24 -78 -36 -83 -55 -8 -31 11 -54 45 -53 14 0 60
15 101 32 58 25 76 38 78 55 4 29 -14 52 -42 51 -11 0 -56 -14 -99 -30z"/>
<path d="M3664 3539 c-3 -6 -2 -15 4 -21 13 -13 32 -2 32 18 0 16 -26 19 -36
3z m26 -9 c0 -5 -2 -10 -4 -10 -3 0 -8 5 -11 10 -3 6 -1 10 4 10 6 0 11 -4 11
-10z"/>
<path d="M11338 3529 c-23 -13 -25 -110 -4 -128 9 -8 43 -11 93 -9 l78 3 3 60
c3 47 0 62 -14 72 -21 15 -131 17 -156 2z"/>
<path d="M10968 3443 c4 -121 7 -133 38 -133 31 0 32 4 36 123 l4 97 -41 0
-40 0 3 -87z"/>
<path d="M2582 3511 c-9 -5 -12 -27 -10 -72 l3 -64 80 -3 c93 -3 105 5 105 74
0 61 -17 74 -98 74 -37 0 -73 -4 -80 -9z"/>
<path d="M8780 3465 c0 -46 -5 -61 -25 -83 -27 -29 -41 -60 -31 -70 10 -9 122
-15 161 -8 43 8 44 21 5 74 -24 33 -30 52 -30 92 l0 50 -40 0 -40 0 0 -55z"/>
<path d="M2226 3494 c-17 -45 2 -214 24 -214 14 0 30 71 30 132 0 79 -6 98
-30 98 -10 0 -21 -7 -24 -16z"/>
<path d="M8622 3492 c-1 -13 -11 -36 -23 -51 -17 -23 -19 -33 -10 -50 19 -34
47 -44 78 -27 28 14 28 14 -14 9 -35 -5 -43 -2 -52 16 -9 16 -9 27 0 43 8 14
14 18 17 10 2 -6 15 -12 28 -12 17 0 30 -9 42 -30 17 -30 32 -39 32 -20 0 6
-4 10 -8 10 -5 0 -14 11 -20 25 -8 17 -20 25 -36 25 -21 0 -25 5 -29 38 -2 20
-4 27 -5 14z"/>
<path d="M3682 3479 c-1 -15 -9 -32 -17 -39 -18 -15 -20 -61 -3 -78 14 -14 57
-15 78 -2 11 7 6 8 -17 4 -20 -4 -39 -2 -48 6 -17 14 -20 56 -5 65 6 3 10 1
10 -4 0 -6 12 -11 28 -11 20 0 32 -8 44 -31 10 -17 22 -28 27 -25 14 9 -44 66
-67 66 -17 0 -22 8 -25 38 -2 24 -4 28 -5 11z"/>
<path d="M3817 3493 c-4 -3 -3 -11 3 -18 5 -6 10 -51 12 -101 3 -88 3 -89 28
-89 25 0 25 1 28 89 2 50 7 95 12 101 14 17 1 25 -40 25 -20 0 -40 -3 -43 -7z"/>
<path d="M10072 3488 c-17 -17 -15 -32 7 -53 20 -17 20 -17 -1 -46 -18 -23
-19 -31 -8 -44 17 -20 33 -19 55 4 17 20 17 20 46 -1 23 -18 31 -19 44 -8 20
17 19 33 -5 55 l-20 18 21 23 c38 41 -3 84 -44 46 -22 -20 -22 -20 -46 -1 -27
22 -33 23 -49 7z"/>
<path d="M10420 3490 c0 -5 -7 -10 -15 -10 -8 0 -21 -13 -29 -28 -8 -16 -22
-34 -30 -41 -21 -18 -20 -37 4 -63 16 -17 23 -19 32 -10 15 15 94 16 103 2 3
-5 -1 -10 -9 -10 -9 0 -16 -8 -16 -18 0 -10 -5 -23 -10 -28 -17 -17 -24 -108
-11 -132 10 -19 20 -22 71 -22 51 0 60 3 65 21 9 27 -4 139 -16 139 -5 0 -9 9
-9 19 0 12 -8 21 -22 24 l-23 4 22 8 c24 8 33 40 26 96 l-6 39 -48 0 c-26 0
-51 5 -54 10 -3 6 -10 10 -16 10 -5 0 -9 -4 -9 -10z m103 -187 c-7 -2 -19 -2
-25 0 -7 3 -2 5 12 5 14 0 19 -2 13 -5z"/>
<path d="M2400 3446 c0 -19 -6 -25 -27 -28 -23 -2 -29 -8 -31 -35 -3 -31 -1
-33 27 -33 28 0 31 -3 31 -31 0 -28 2 -30 33 -27 27 2 33 8 35 31 3 21 9 27
28 27 21 0 24 5 24 35 0 31 -3 35 -25 35 -20 0 -25 5 -25 25 0 22 -4 25 -35
25 -30 0 -35 -3 -35 -24z"/>
<path d="M4497 3453 c-4 -3 -3 -11 3 -18 5 -6 10 -51 12 -101 3 -88 3 -89 28
-89 25 0 25 1 28 90 2 49 7 94 12 99 6 6 10 14 10 18 0 10 -84 11 -93 1z"/>
<path d="M266 3408 c-19 -37 -21 -139 -4 -156 7 -7 22 -12 34 -12 13 0 24 -7
27 -17 4 -17 5 -17 6 0 0 9 7 18 14 18 6 1 19 2 27 3 22 2 26 118 5 162 -14
30 -21 34 -55 34 -33 0 -41 -4 -54 -32z m67 5 c-7 -2 -19 -2 -25 0 -7 3 -2 5
12 5 14 0 19 -2 13 -5z"/>
<path d="M4663 3413 c-7 -15 -15 -50 -18 -78 -9 -70 6 -87 73 -87 29 1 57 4
63 8 13 8 7 123 -7 145 -5 8 -9 19 -9 24 0 6 -20 11 -45 13 -41 3 -46 0 -57
-25z m64 11 c-3 -3 -12 -4 -19 -1 -8 3 -5 6 6 6 11 1 17 -2 13 -5z"/>
<path d="M4961 3433 c-13 -3 -26 -13 -28 -23 -4 -15 -16 -20 -52 -22 l-46 -3
-3 -72 -3 -73 113 0 113 0 -3 87 c-2 49 -6 91 -10 94 -11 10 -55 16 -81 12z"/>
<path d="M4097 3382 c-59 -64 -72 -128 -32 -167 35 -36 88 -34 127 5 25 26 29
35 23 63 -7 33 -61 112 -81 121 -7 2 -23 -8 -37 -22z"/>
<path d="M7688 3298 c4 -101 12 -128 37 -128 25 0 33 27 37 128 l4 102 -41 0
-41 0 4 -102z"/>
<path d="M9012 3374 c-54 -22 -69 -89 -31 -138 16 -21 29 -26 63 -26 55 0 88
32 88 85 0 66 -59 105 -120 79z"/>
<path d="M12150 3363 c-93 -35 -121 -68 -88 -101 18 -18 51 -15 125 15 83 32
93 39 93 67 0 51 -32 56 -130 19z"/>
<path d="M12552 3361 c-40 -16 -79 -34 -86 -40 -11 -9 -17 -5 -27 19 -13 27
-18 30 -59 30 -40 0 -47 -3 -58 -29 -8 -17 -12 -56 -10 -93 l3 -63 65 0 65 0
3 42 c3 42 3 43 26 27 22 -14 30 -12 102 17 44 17 85 35 92 41 19 16 14 56 -7
68 -26 13 -25 14 -109 -19z m-159 -8 c-7 -2 -19 -2 -25 0 -7 3 -2 5 12 5 14 0
19 -2 13 -5z"/>
<path d="M7255 3355 c-32 -31 -34 -96 -5 -125 46 -46 122 -32 146 27 37 88
-74 166 -141 98z"/>
<path d="M11177 3340 c-17 -40 -22 -104 -11 -134 4 -9 18 -16 34 -16 19 0 30
-6 33 -17 4 -17 5 -17 6 0 1 12 9 17 30 17 17 0 31 6 35 15 8 22 -5 135 -15
135 -5 0 -9 9 -9 20 0 17 -7 20 -43 20 -40 0 -43 -2 -60 -40z"/>
<path d="M63 3338 c-12 -6 -29 -26 -38 -45 -14 -29 -15 -40 -4 -64 38 -94 169
-71 169 30 0 32 -6 44 -31 65 -32 27 -60 31 -96 14z"/>
<path d="M1630 3335 c-11 -13 -9 -20 10 -40 l22 -24 -20 -26 c-36 -45 -3 -79
42 -44 l26 20 26 -20 c21 -16 30 -18 40 -10 19 16 17 33 -5 54 -20 17 -20 17
1 45 36 50 -6 85 -47 40 l-18 -20 -22 20 c-26 24 -38 25 -55 5z"/>
<path d="M11422 3330 c-22 -9 -23 -14 -20 -92 l3 -83 68 -3 67 -3 0 89 c0 85
-1 90 -22 96 -32 8 -69 6 -96 -4z"/>
<path d="M11937 3334 c-4 -4 -7 -27 -7 -52 0 -34 -7 -53 -30 -82 -52 -66 -40
-80 70 -80 109 0 123 14 71 73 -24 26 -30 44 -33 88 -3 52 -4 54 -33 57 -17 2
-34 0 -38 -4z"/>
<path d="M2634 3302 c-60 -77 -70 -138 -28 -171 57 -45 144 -12 144 55 0 20
-5 45 -11 57 -13 24 -70 87 -78 86 -4 0 -15 -12 -27 -27z"/>
<path d="M498 3218 c4 -101 12 -128 37 -128 26 0 34 28 36 125 l2 100 -39 3
-40 3 4 -103z"/>
<path d="M1374 3306 c-3 -7 -4 -38 -2 -67 l3 -54 84 -3 c95 -3 101 0 101 65 0
71 -2 73 -96 73 -62 0 -86 -4 -90 -14z"/>
<path d="M7554 3272 c-15 -20 -43 -53 -62 -73 -19 -20 -43 -50 -54 -67 -19
-30 -19 -32 -2 -32 18 0 184 163 184 180 0 5 -9 14 -19 19 -16 9 -24 4 -47
-27z"/>
<path d="M11657 3303 c-12 -11 -8 -36 10 -55 15 -17 15 -19 0 -36 -21 -23 -22
-51 -2 -58 16 -6 29 -2 57 18 14 10 21 9 37 -6 39 -35 70 6 34 46 -15 17 -15
19 0 36 10 10 17 28 17 40 0 27 -35 30 -62 5 -17 -15 -19 -15 -36 0 -19 18
-44 22 -55 10z"/>
<path d="M1877 3293 c-9 -8 -9 -150 -1 -192 7 -34 34 -43 34 -12 0 11 5 23 10
26 13 8 13 141 0 166 -11 19 -31 25 -43 12z"/>
<path d="M3697 3274 c-14 -15 -6 -34 14 -34 14 0 19 5 17 17 -3 18 -20 27 -31
17z"/>
<path d="M10093 3254 c-10 -16 -13 -33 -8 -51 8 -33 81 -103 106 -103 25 0 96
70 104 103 5 18 2 35 -8 51 -14 21 -23 23 -97 23 -74 0 -83 -2 -97 -23z"/>
<path d="M2227 3263 c-12 -11 -7 -168 6 -196 14 -32 27 -35 27 -8 0 11 5 23
10 26 14 9 13 158 -2 173 -13 13 -31 16 -41 5z"/>
<path d="M8578 3263 c-2 -4 -1 -53 2 -107 4 -79 8 -101 22 -110 34 -21 46 10
49 119 l3 100 -36 3 c-20 2 -38 -1 -40 -5z"/>
<path d="M2408 3228 c-34 -45 -58 -93 -58 -116 0 -11 9 -31 21 -46 42 -53 159
-21 159 44 0 30 -33 90 -68 123 l-29 28 -25 -33z"/>
<path d="M10954 3226 c-3 -7 -4 -38 -2 -67 l3 -54 84 -3 c95 -3 101 0 101 65
0 71 -2 73 -96 73 -62 0 -86 -4 -90 -14z"/>
<path d="M3892 3207 c-51 -54 -12 -147 62 -147 79 0 119 88 66 145 -32 34 -97
35 -128 2z"/>
<path d="M8838 3223 c-18 -3 -28 -10 -28 -21 0 -14 -10 -17 -47 -17 l-48 0 -3
-77 -3 -78 113 0 113 0 -3 87 c-2 49 -6 91 -10 94 -11 10 -54 16 -84 12z"/>
<path d="M3700 3202 c0 -12 -7 -34 -16 -48 -33 -50 23 -103 78 -73 12 7 29 12
37 10 7 -1 1 13 -14 33 -15 20 -36 36 -46 36 -11 0 -19 7 -19 18 0 9 -5 24
-10 32 -8 12 -10 11 -10 -8z m40 -52 c11 0 24 -9 30 -21 9 -17 8 -23 -7 -35
-25 -19 -47 -17 -67 5 -21 23 -13 66 11 57 8 -3 23 -6 33 -6z"/>
<path d="M317 3179 c-27 -16 -49 -73 -38 -101 24 -62 99 -82 146 -38 36 34 36
100 -1 129 -29 23 -78 27 -107 10z"/>
<path d="M4508 3103 c4 -121 7 -133 38 -133 31 0 32 4 36 123 l4 97 -41 0 -40
0 3 -87z"/>
<path d="M1600 3119 c0 -42 -6 -58 -30 -89 -51 -64 -37 -80 70 -80 67 0 100 8
100 25 0 6 -13 31 -30 53 -24 33 -30 52 -30 92 l0 50 -40 0 -40 0 0 -51z"/>
<path d="M4693 3163 c-28 -6 -35 -30 -31 -113 l3 -65 70 0 70 0 3 75 c1 41 -1
80 -6 87 -9 14 -75 24 -109 16z"/>
<path d="M12150 3155 c-11 -13 -9 -21 9 -46 l23 -31 -23 -24 c-18 -19 -20 -26
-9 -39 17 -20 33 -19 55 4 17 20 17 20 45 -1 50 -36 85 6 40 47 l-20 18 22 24
c17 18 20 28 12 40 -16 26 -31 26 -54 3 l-21 -21 -26 21 c-31 24 -37 25 -53 5z"/>
<path d="M1797 3154 c-14 -14 -7 -35 11 -32 9 2 17 10 17 17 0 16 -18 25 -28
15z m23 -14 c0 -5 -4 -10 -10 -10 -5 0 -10 5 -10 10 0 6 5 10 10 10 6 0 10 -4
10 -10z"/>
<path d="M4146 3135 c-12 -32 -6 -143 10 -180 25 -61 39 -30 39 88 0 96 -1
102 -21 105 -13 2 -24 -4 -28 -13z"/>
<path d="M7208 3133 c-24 -29 -27 -48 -11 -81 19 -40 85 -86 112 -77 10 3 36
24 55 45 41 45 47 87 18 113 -20 19 -67 23 -77 7 -4 -7 -12 -7 -25 0 -28 15
-55 12 -72 -7z"/>
<path d="M7613 3143 c-22 -4 -23 -9 -23 -94 l0 -90 68 3 67 3 3 83 c3 81 2 82
-23 92 -27 10 -51 11 -92 3z"/>
<path d="M11320 3120 c0 -27 -3 -30 -30 -30 -27 0 -30 -3 -30 -30 0 -27 3 -30
30 -30 27 0 30 -3 30 -30 0 -28 3 -30 35 -30 32 0 35 2 35 30 0 27 3 30 30 30
27 0 30 3 30 30 0 27 -3 30 -30 30 -27 0 -30 3 -30 30 0 28 -3 30 -35 30 -32
0 -35 -2 -35 -30z"/>
<path d="M4863 3114 c-10 -16 -13 -33 -8 -51 8 -33 81 -103 106 -103 10 0 39
19 64 43 48 47 56 77 30 113 -12 19 -24 21 -95 21 -74 0 -83 -2 -97 -23z"/>
<path d="M9028 3125 c-33 -18 -52 -72 -39 -108 35 -92 171 -67 171 31 0 67
-73 110 -132 77z"/>
<path d="M161 3121 c-13 -4 -27 -13 -30 -21 -4 -11 -21 -16 -51 -16 l-45 -1
-3 -77 -3 -76 113 0 113 0 -3 87 c-2 49 -6 91 -10 94 -12 11 -56 17 -81 10z"/>
<path d="M10478 3112 l-28 -3 -2 -92 c-2 -90 -2 -90 -5 -19 l-4 72 -44 0 -43
0 -4 -75 -3 -75 110 0 110 0 -3 94 c-3 93 -3 94 -30 97 -15 2 -39 3 -54 1z"/>
<path d="M11564 3096 c-59 -50 -19 -150 60 -150 50 0 86 36 86 86 0 79 -86
117 -146 64z"/>
<path d="M1802 3087 c-1 -16 -9 -35 -17 -43 -21 -21 -19 -50 5 -74 24 -24 40
-25 66 -4 18 14 18 15 -4 4 -29 -14 -72 10 -72 40 0 25 8 29 48 23 23 -4 37
-14 48 -35 8 -16 19 -26 24 -23 5 3 0 15 -10 25 -11 11 -20 25 -20 30 0 6 -13
10 -29 10 -27 0 -30 4 -34 38 -3 28 -4 30 -5 9z"/>
<path d="M11852 3086 c-12 -6 -25 -19 -28 -29 -3 -10 -16 -29 -29 -43 -23 -25
-23 -28 -9 -55 14 -28 44 -40 44 -19 0 14 93 13 107 -1 8 -8 18 -6 37 6 23 15
26 24 26 76 l0 59 -55 0 c-30 0 -55 5 -55 10 0 12 -8 11 -38 -4z"/>
<path d="M1372 3080 c-22 -9 -23 -14 -20 -92 l3 -83 68 -3 67 -3 0 89 0 90
-31 6 c-40 8 -59 7 -87 -4z"/>
<path d="M12366 3068 c-9 -12 -16 -32 -16 -44 0 -25 37 -74 79 -104 l28 -19
42 30 c56 42 76 82 61 120 -14 34 -50 47 -85 31 -15 -7 -26 -8 -30 -2 -12 19
-63 11 -79 -12z"/>
<path d="M10032 3068 c-25 -25 -9 -218 18 -218 15 0 30 64 30 130 0 68 -9 100
-30 100 -3 0 -11 -5 -18 -12z"/>
<path d="M10187 3064 c-4 -4 -7 -30 -7 -57 0 -41 -5 -55 -31 -84 -50 -58 -39
-68 71 -68 110 0 121 10 71 67 -24 28 -30 45 -33 89 -3 52 -4 54 -33 57 -17 2
-34 0 -38 -4z"/>
<path d="M11070 3055 c-11 -13 -10 -21 7 -43 l20 -27 -20 -27 c-17 -22 -18
-30 -7 -43 17 -20 29 -19 56 6 l23 21 22 -21 c25 -23 37 -23 53 2 8 12 5 22
-12 40 l-22 23 22 21 c39 39 -5 83 -45 45 -22 -20 -22 -20 -46 -1 -28 23 -35
24 -51 4z"/>
<path d="M12086 3063 c-3 -3 -3 -25 1 -49 4 -35 2 -49 -12 -64 -35 -39 6 -99
58 -86 15 3 27 11 27 17 0 8 -5 7 -15 -1 -19 -15 -61 -6 -69 16 -21 55 48 65
86 13 12 -16 27 -29 32 -29 8 0 8 3 1 8 -6 4 -18 19 -28 35 -11 17 -26 27 -42
27 -22 0 -25 4 -25 34 0 19 5 38 10 41 15 9 12 32 -4 38 -8 3 -17 3 -20 0z"/>
<path d="M10962 3038 c-25 -25 -9 -218 18 -218 15 0 30 64 30 130 0 68 -9 100
-30 100 -3 0 -11 -5 -18 -12z"/>
<path d="M2622 3028 c-17 -17 -15 -32 8 -53 l20 -18 -21 -23 c-24 -26 -22 -57
5 -62 10 -2 28 6 40 17 l23 21 18 -20 c22 -24 38 -25 55 -5 11 13 9 20 -10 40
l-22 24 20 26 c36 46 3 79 -43 43 -23 -18 -28 -19 -43 -6 -28 25 -38 28 -50
16z"/>
<path d="M450 2987 c-80 -30 -85 -34 -88 -64 -2 -24 2 -34 18 -43 17 -9 37 -5
107 22 97 37 120 63 88 98 -23 25 -24 25 -125 -13z"/>
<path d="M3947 3013 c-4 -3 -17 -7 -30 -8 -13 -1 -23 -9 -25 -21 -2 -16 -10
-19 -52 -16 l-50 4 0 -81 0 -81 113 0 112 0 -3 87 c-3 99 -7 117 -22 108 -6
-4 -17 -2 -24 4 -7 6 -16 8 -19 4z"/>
<path d="M2248 2908 c4 -101 12 -128 37 -128 25 0 33 27 37 128 l4 102 -41 0
-41 0 4 -102z"/>
<path d="M3642 2988 c-25 -25 -9 -218 18 -218 15 0 30 64 30 130 0 68 -9 100
-30 100 -3 0 -11 -5 -18 -12z"/>
<path d="M7410 2981 c0 -11 -4 -21 -10 -23 -14 -5 -17 -125 -4 -138 12 -12
107 -16 124 -5 16 10 12 118 -6 153 -14 29 -20 32 -60 32 -37 0 -44 -3 -44
-19z m57 -7 c-3 -3 -12 -4 -19 -1 -8 3 -5 6 6 6 11 1 17 -2 13 -5z"/>
<path d="M11436 2948 c8 -73 10 -78 37 -78 15 0 29 -9 37 -25 7 -14 19 -25 26
-25 19 0 -38 57 -61 62 -16 3 -20 11 -19 43 0 22 2 46 5 54 2 8 -4 16 -13 19
-15 3 -17 -3 -12 -50z m24 38 c0 -3 -4 -8 -10 -11 -5 -3 -10 -1 -10 4 0 6 5
11 10 11 6 0 10 -2 10 -4z"/>
<path d="M2420 2971 c0 -11 -5 -21 -10 -23 -16 -5 -25 -111 -12 -134 15 -27
118 -30 132 -4 11 21 2 140 -11 140 -5 0 -9 9 -9 20 0 17 -7 20 -45 20 -38 0
-45 -3 -45 -19z m57 -7 c-3 -3 -12 -4 -19 -1 -8 3 -5 6 6 6 11 1 17 -2 13 -5z"/>
<path d="M6031 2944 c-86 -72 16 -202 107 -138 52 36 48 120 -8 149 -41 21
-64 19 -99 -11z"/>
<path d="M6273 2946 c-12 -6 -27 -21 -33 -35 -6 -14 -20 -31 -31 -39 -25 -17
-24 -37 2 -65 18 -19 22 -20 32 -7 14 18 97 15 109 -3 5 -9 15 -8 35 5 25 15
28 22 28 75 l0 58 -50 3 c-27 2 -54 7 -60 11 -5 4 -20 3 -32 -3z"/>
<path d="M8617 2933 c-37 -41 -15 -102 53 -147 l38 -25 45 34 c24 19 47 41 51
50 22 58 -11 113 -61 101 -33 -8 -39 -8 -78 0 -23 4 -35 1 -48 -13z"/>
<path d="M4092 2928 c-25 -25 -9 -218 18 -218 15 0 30 64 30 130 0 68 -9 100
-30 100 -3 0 -11 -5 -18 -12z"/>
<path d="M5856 2924 c-3 -9 -6 -31 -6 -51 0 -23 -11 -49 -32 -79 -27 -38 -30
-47 -18 -54 21 -14 187 -12 196 1 3 6 -7 31 -24 55 -23 32 -32 56 -33 94 l-3
50 -37 0 c-24 0 -39 -5 -43 -16z"/>
<path d="M7686 2903 c-14 -21 -42 -54 -62 -73 -36 -35 -69 -88 -61 -97 11 -10
47 19 116 93 39 42 71 82 71 89 0 10 -20 25 -34 25 -2 0 -15 -17 -30 -37z"/>
<path d="M8857 2933 c-13 -13 -7 -40 13 -58 l20 -18 -20 -22 c-24 -26 -25 -38
-5 -55 13 -11 20 -9 40 10 l24 22 27 -21 c33 -26 41 -26 53 -2 8 14 6 25 -10
45 -20 25 -20 28 -5 45 38 42 2 80 -39 41 l-23 -22 -21 21 c-21 21 -42 27 -54
14z"/>
<path d="M11283 2923 c-14 -3 -23 -12 -23 -22 0 -16 -7 -17 -49 -13 l-49 4 -4
-81 -3 -81 104 0 c88 0 102 -2 92 -14 -7 -9 -11 -38 -9 -73 l3 -58 78 -3 c100
-4 109 3 105 77 l-3 56 -65 3 c-35 2 -70 8 -77 14 -9 7 -13 39 -13 99 0 65 -3
89 -12 89 -7 0 -22 2 -33 4 -11 2 -30 2 -42 -1z"/>
<path d="M12542 2923 c-22 -4 -23 -8 -20 -91 l3 -87 65 0 65 0 3 86 3 86 -32
7 c-33 6 -49 6 -87 -1z"/>
<path d="M7210 2912 c0 -4 4 -12 10 -18 5 -5 10 -50 12 -99 3 -85 4 -90 26
-93 28 -4 30 3 34 121 l3 97 -42 0 c-24 0 -43 -4 -43 -8z"/>
<path d="M1806 2895 c-18 -48 2 -205 26 -205 18 0 29 57 26 134 -3 74 -5 81
-24 84 -13 2 -24 -4 -28 -13z"/>
<path d="M4574 2894 c3 -9 6 -56 6 -105 0 -74 3 -91 16 -96 37 -14 49 10 50
101 1 48 5 90 8 93 15 16 2 23 -40 23 -38 0 -45 -3 -40 -16z"/>
<path d="M12321 2903 c-13 -3 -25 -12 -28 -22 -3 -12 -16 -18 -45 -20 -23 -1
-45 -4 -50 -7 -5 -3 -8 -37 -7 -75 l2 -69 111 0 111 0 -3 95 c-3 85 -5 95 -22
95 -10 0 -24 2 -32 4 -7 2 -24 1 -37 -1z"/>
<path d="M98 2892 c-22 -3 -28 -9 -28 -27 0 -18 -6 -24 -27 -27 -24 -3 -28 -8
-28 -33 0 -25 4 -31 27 -33 21 -3 27 -9 30 -30 2 -23 8 -27 33 -27 25 0 31 4
33 27 3 21 9 27 30 30 23 2 27 8 27 33 0 25 -4 30 -27 33 -22 3 -28 9 -28 27
0 28 -6 32 -42 27z"/>
<path d="M1592 2886 c-12 -6 -25 -19 -28 -30 -4 -11 -18 -30 -32 -43 -25 -23
-25 -25 -10 -51 18 -29 48 -42 48 -20 0 16 91 12 102 -6 5 -8 15 -6 35 6 25
15 28 22 28 75 l0 58 -50 3 c-27 2 -54 7 -60 11 -5 4 -20 2 -33 -3z"/>
<path d="M4727 2882 c-31 -35 -21 -71 33 -124 l51 -49 43 30 c24 17 51 47 61
67 16 35 16 37 -2 63 -22 28 -66 39 -88 21 -9 -7 -15 -8 -20 0 -10 17 -61 12
-78 -8z"/>
<path d="M5020 2876 c0 -19 -6 -25 -27 -28 -23 -2 -29 -8 -31 -35 -3 -31 -1
-33 27 -33 25 0 30 -4 33 -27 3 -24 8 -28 33 -28 25 0 31 4 33 27 3 21 9 27
30 30 23 2 27 8 27 33 0 25 -4 30 -27 33 -22 3 -28 9 -28 28 0 21 -5 24 -35
24 -30 0 -35 -3 -35 -24z"/>
<path d="M11414 2875 c-11 -27 5 -64 30 -71 30 -7 66 3 66 19 0 8 -3 8 -12 -1
-17 -17 -53 -15 -68 3 -7 8 -10 26 -8 40 6 28 1 33 -8 10z"/>
<path d="M9064 2844 c-40 -39 -19 -90 59 -146 l28 -20 40 28 c70 48 87 104 44
144 -23 22 -29 23 -57 12 -20 -7 -37 -8 -49 -2 -27 15 -38 12 -65 -16z"/>
<path d="M10393 2863 c-9 -3 -13 -30 -13 -84 0 -46 -4 -78 -9 -75 -5 4 -16 3
-25 0 -28 -11 -20 -224 8 -224 19 0 36 62 36 133 l0 66 63 3 62 3 3 84 c2 61
-1 87 -10 92 -14 9 -95 11 -115 2z"/>
<path d="M263 2816 c-54 -70 -57 -142 -8 -164 67 -31 135 3 135 67 0 20 -7 48
-17 61 -20 32 -65 80 -72 80 -3 0 -21 -20 -38 -44z"/>
<path d="M437 2833 c-12 -11 -8 -36 8 -53 14 -16 14 -20 -2 -48 -16 -28 -17
-33 -2 -47 14 -14 18 -14 43 6 25 20 28 20 45 5 10 -9 27 -16 39 -16 27 0 30
35 5 62 -15 17 -15 19 1 37 37 40 -5 82 -45 45 -18 -16 -20 -16 -37 -1 -19 18
-44 22 -55 10z"/>
<path d="M1320 2830 c0 -5 -7 -10 -15 -10 -8 0 -21 -13 -29 -28 -8 -16 -22
-34 -30 -41 -22 -18 -20 -44 4 -66 16 -14 23 -16 32 -7 16 16 83 15 109 0 17
-10 23 -10 26 0 3 6 11 12 19 12 16 0 15 -1 20 55 5 69 -1 75 -62 75 -30 0
-54 5 -54 10 0 6 -4 10 -10 10 -5 0 -10 -4 -10 -10z"/>
<path d="M7694 2819 c-3 -6 -2 -14 4 -18 7 -4 12 -47 14 -101 3 -94 3 -95 28
-95 25 0 25 1 28 95 2 60 7 97 15 102 9 6 8 10 -3 18 -20 13 -77 13 -86 -1z"/>
<path d="M11010 2806 c0 -19 -6 -25 -27 -28 -23 -2 -27 -8 -27 -33 0 -25 4
-31 26 -33 21 -2 28 -9 30 -30 2 -22 9 -28 36 -30 30 -3 32 -1 32 27 0 28 3
31 31 31 28 0 30 2 27 33 -2 27 -8 33 -30 35 -22 3 -28 9 -28 28 0 21 -5 24
-35 24 -30 0 -35 -3 -35 -24z"/>
<path d="M2570 2780 c0 -27 -3 -30 -30 -30 -27 0 -30 -3 -30 -30 0 -27 3 -30
30 -30 27 0 30 -3 30 -30 0 -28 3 -30 35 -30 32 0 35 2 35 30 0 27 3 30 30 30
27 0 30 3 30 30 0 27 -3 30 -30 30 -27 0 -30 3 -30 30 0 28 -3 30 -35 30 -32
0 -35 -2 -35 -30z"/>
<path d="M2778 2778 c-67 -89 -65 -154 5 -177 67 -22 136 31 119 92 -10 36
-69 117 -86 117 -7 0 -25 -15 -38 -32z"/>
<path d="M9941 2771 c-8 -14 -6 -23 9 -36 24 -22 25 -38 5 -55 -8 -7 -15 -21
-15 -32 0 -29 28 -33 56 -8 l24 23 24 -23 c28 -25 56 -21 56 8 0 10 -9 27 -20
37 l-20 18 20 22 c42 45 9 86 -36 45 l-24 -23 -23 21 c-29 27 -43 28 -56 3z"/>
<path d="M10207 2783 c-11 -10 -8 -169 3 -197 11 -31 30 -34 30 -7 0 11 5 23
10 26 14 9 13 158 -2 173 -13 13 -31 16 -41 5z"/>
<path d="M1131 2728 c-11 -18 -36 -49 -56 -68 -41 -40 -80 -98 -71 -107 10
-10 59 28 116 90 69 74 75 84 60 103 -18 21 -26 18 -49 -18z"/>
<path d="M2367 2754 c-11 -11 -8 -172 3 -179 6 -3 10 -15 10 -26 0 -10 5 -19
10 -19 6 0 10 8 10 18 0 10 5 23 10 28 7 7 10 46 8 95 -3 76 -5 84 -23 87 -12
2 -24 0 -28 -4z"/>
<path d="M3720 2746 c0 -7 -7 -19 -15 -26 -10 -8 -15 -31 -15 -65 0 -71 7 -85
40 -85 19 0 30 -6 33 -17 4 -17 5 -17 6 0 1 12 10 17 31 17 33 0 34 2 30 90
-1 30 -6 57 -11 58 -5 2 -9 12 -9 23 0 16 -7 19 -45 19 -32 0 -45 -4 -45 -14z"/>
<path d="M7485 2740 c-3 -5 -15 -10 -26 -10 -17 0 -19 -8 -21 -87 l-2 -88 -3
73 -4 72 -44 0 -45 0 -1 -72 c-1 -40 -4 -63 -6 -50 -2 12 -9 22 -14 22 -5 0
-9 9 -9 20 0 17 -7 20 -45 20 -38 0 -45 -3 -45 -19 0 -11 -5 -21 -11 -23 -14
-5 -23 -119 -11 -136 13 -19 121 -19 133 -1 6 8 8 29 5 47 l-5 32 112 0 112 0
-3 87 c-3 99 -7 117 -22 108 -6 -4 -17 -2 -25 5 -9 7 -15 8 -20 0z m-208 -126
c-3 -3 -12 -4 -19 -1 -8 3 -5 6 6 6 11 1 17 -2 13 -5z"/>
<path d="M6146 2709 c-42 -33 -36 -73 19 -126 25 -24 51 -43 59 -43 21 0 104
79 108 103 5 29 -17 74 -41 82 -10 3 -30 1 -44 -6 -18 -8 -30 -8 -45 0 -27 14
-25 14 -56 -10z"/>
<path d="M8788 2714 c-83 -44 -53 -164 41 -164 32 0 44 6 65 31 14 17 26 39
26 50 0 32 -26 74 -55 87 -33 15 -44 15 -77 -4z"/>
<path d="M12637 2698 c-37 -50 -47 -73 -47 -112 0 -62 66 -94 129 -61 45 23
55 79 24 125 -22 34 -65 80 -74 80 -5 0 -19 -15 -32 -32z"/>
<path d="M3496 2691 c-79 -31 -104 -58 -86 -90 14 -28 45 -27 127 6 83 32 93
39 93 67 0 52 -34 57 -134 17z"/>
<path d="M3897 2713 c-13 -13 -7 -40 13 -58 l20 -18 -20 -22 c-41 -43 -7 -85
36 -44 l23 21 27 -21 c33 -26 41 -26 53 -2 8 14 6 25 -10 45 -20 25 -20 28 -5
45 38 42 2 80 -40 41 l-24 -23 -23 21 c-24 23 -39 27 -50 15z"/>
<path d="M6017 2680 c-8 -11 -32 -40 -53 -63 -76 -81 -103 -127 -75 -127 11 0
93 77 146 138 31 35 35 45 25 57 -17 20 -26 19 -43 -5z"/>
<path d="M1611 2676 c-8 -9 -11 -42 -9 -93 l3 -78 65 0 65 0 0 90 0 90 -56 3
c-39 2 -59 -1 -68 -12z"/>
<path d="M5188 2593 c4 -119 5 -123 36 -123 31 0 34 10 37 122 l2 93 -40 3
-39 3 4 -98z"/>
<path d="M7617 2683 c-4 -3 -7 -30 -7 -58 0 -36 -5 -57 -16 -66 -8 -7 -22 -25
-29 -39 -21 -41 -4 -50 90 -50 94 0 111 9 90 50 -7 14 -21 32 -29 39 -9 8 -16
29 -16 50 0 65 -9 81 -44 81 -18 0 -36 -3 -39 -7z"/>
<path d="M9037 2683 c-12 -11 -7 -168 6 -196 14 -32 27 -35 27 -8 0 11 5 23
10 26 11 7 14 143 4 169 -6 16 -35 22 -47 9z"/>
<path d="M50 2662 c-39 -19 -56 -55 -46 -95 22 -88 150 -89 172 -2 19 76 -55
133 -126 97z"/>
<path d="M816 2654 c-37 -37 -35 -86 3 -125 16 -16 39 -29 50 -29 52 0 101 48
101 100 0 12 -13 35 -29 51 -39 38 -88 40 -125 3z"/>
<path d="M12466 2672 c-17 -2 -30 -11 -33 -22 -4 -15 -16 -20 -52 -22 l-46 -3
-2 -77 -1 -78 111 0 112 0 -3 87 c-2 49 -5 93 -7 99 -4 13 -39 20 -79 16z"/>
<path d="M1511 2638 c-11 -18 -36 -49 -56 -68 -41 -40 -80 -98 -71 -107 9 -10
58 27 113 86 67 72 82 99 63 111 -23 15 -27 13 -49 -22z"/>
<path d="M4985 2636 c-11 -22 -15 -53 -13 -92 3 -58 3 -59 35 -62 20 -2 33
-10 36 -20 4 -15 5 -15 6 1 1 12 10 17 31 17 l30 0 0 75 c0 43 -4 75 -10 75
-5 0 -10 9 -10 20 0 17 -7 20 -45 20 -40 0 -45 -3 -60 -34z"/>
<path d="M5680 2655 c-11 -13 -9 -21 9 -46 l23 -31 -23 -24 c-18 -19 -20 -26
-9 -39 17 -20 33 -19 55 4 17 20 17 20 45 -1 50 -36 85 6 40 47 l-20 18 20 22
c24 26 25 38 5 55 -13 11 -20 9 -40 -10 l-24 -22 -27 21 c-32 25 -38 26 -54 6z"/>
<path d="M11221 2663 c-13 -3 -25 -12 -28 -21 -3 -13 -13 -16 -48 -14 -40 4
-45 2 -51 -22 -3 -14 -4 -46 -2 -71 4 -50 -1 -54 -25 -27 -12 13 -17 37 -17
75 l0 57 -40 0 -40 0 0 -54 c0 -47 -4 -60 -30 -88 -55 -60 -37 -78 77 -78 74
0 93 6 93 31 0 17 8 19 93 19 l93 0 11 -30 c15 -39 44 -39 143 4 68 29 75 34
75 60 0 48 -25 54 -102 27 -38 -13 -78 -30 -90 -37 l-23 -14 0 90 c0 82 -2 90
-19 90 -11 0 -25 2 -33 4 -7 2 -24 1 -37 -1z"/>
<path d="M681 2646 c-8 -10 -9 -16 -1 -21 16 -10 12 -72 -5 -79 -9 -3 -15 -18
-15 -34 0 -52 61 -82 91 -45 13 15 12 15 -10 4 -32 -18 -71 0 -71 32 0 31 4
34 41 29 21 -3 37 -14 48 -33 9 -16 19 -29 23 -29 4 0 -2 16 -13 35 -15 25
-28 35 -45 35 -21 0 -24 5 -24 38 0 21 5 43 10 48 8 8 7 14 -3 23 -11 9 -17 8
-26 -3z"/>
<path d="M4724 2645 c-18 -13 -18 -14 4 -45 l24 -32 -23 -24 c-18 -19 -20 -26
-9 -39 17 -20 33 -19 55 4 17 20 17 20 45 -1 50 -36 85 6 40 47 l-20 18 20 22
c24 26 25 38 5 55 -13 11 -20 9 -40 -10 -22 -21 -26 -22 -42 -8 -31 26 -39 28
-59 13z"/>
<path d="M9223 2653 c-19 -7 -15 -38 7 -58 l20 -18 -21 -23 c-42 -44 1 -87 45
-45 l23 21 18 -20 c22 -24 38 -25 55 -5 11 13 9 20 -9 38 -25 27 -26 40 -6 57
8 7 15 21 15 32 0 29 -28 33 -56 8 l-24 -23 -23 21 c-25 23 -25 23 -44 15z"/>
<path d="M3018 2642 c-21 -2 -28 -9 -28 -25 0 -20 -4 -22 -49 -19 l-49 4 -4
-76 -3 -76 110 0 110 0 -5 92 c-5 88 -6 92 -30 98 -14 3 -37 4 -52 2z m-31
-174 c-3 -7 -5 -2 -5 12 0 14 2 19 5 13 2 -7 2 -19 0 -25z"/>
<path d="M12195 2641 c-3 -5 -1 -12 5 -16 6 -3 10 -47 10 -101 l0 -94 30 0 30
0 0 94 c0 54 4 98 10 101 20 12 -1 25 -40 25 -21 0 -41 -4 -45 -9z"/>
<path d="M9754 2630 c-30 -12 -54 -49 -54 -83 0 -40 49 -87 90 -87 42 0 90 47
90 89 0 59 -71 105 -126 81z"/>
<path d="M3260 2622 c0 -5 -26 -38 -58 -73 -89 -98 -107 -129 -76 -129 18 0
174 159 174 177 0 7 -9 17 -20 23 -11 6 -20 7 -20 2z"/>
<path d="M453 2610 c-21 -9 -23 -16 -23 -95 l0 -85 70 0 70 0 0 85 c0 83 -1
86 -26 95 -31 12 -61 12 -91 0z"/>
<path d="M9558 2613 l-28 -4 -2 -92 -2 -92 -5 75 -6 75 -42 3 -41 3 -4 -80 -3
-81 110 0 110 0 -3 95 c-3 71 -7 95 -17 95 -7 0 -19 2 -27 3 -7 2 -25 2 -40 0z"/>
<path d="M5455 2593 c-120 -47 -125 -50 -125 -82 0 -52 26 -56 126 -19 98 37
121 63 89 98 -21 23 -35 24 -90 3z"/>
<path d="M1242 2590 c-22 -9 -23 -14 -20 -92 l3 -83 68 -3 67 -3 0 89 0 90
-31 6 c-40 8 -59 7 -87 -4z"/>
<path d="M2543 2575 c-12 -5 -28 -22 -34 -38 -6 -15 -20 -32 -30 -38 -24 -12
-24 -41 -1 -62 21 -19 42 -22 42 -7 0 14 76 12 100 -2 15 -10 22 -10 32 0 22
22 27 12 30 -65 l3 -78 68 -3 67 -3 0 89 0 90 -36 6 c-20 4 -49 4 -64 1 -29
-6 -29 -6 -32 47 l-3 53 -55 3 c-30 2 -57 6 -60 10 -3 4 -15 3 -27 -3z"/>
<path d="M295 2560 c-22 -24 -38 -25 -55 -5 -7 8 -21 15 -32 15 -29 0 -33 -28
-8 -56 l23 -24 -22 -23 c-24 -26 -20 -57 9 -57 9 0 25 9 35 20 28 31 45 9 45
-57 0 -47 -4 -60 -31 -90 -50 -58 -39 -68 71 -68 110 0 121 10 71 68 -26 29
-31 43 -31 86 0 28 -4 51 -10 51 -5 0 -10 6 -10 14 0 7 -9 25 -20 38 -19 25
-19 26 0 43 25 23 25 41 1 54 -14 8 -23 6 -36 -9z"/>
<path d="M9950 2555 c0 -21 -5 -25 -30 -25 -28 0 -30 -3 -30 -35 0 -32 2 -35
30 -35 27 0 30 -3 30 -30 0 -27 3 -30 30 -30 27 0 30 3 30 30 0 27 3 30 30 30
28 0 30 3 30 35 0 32 -2 35 -30 35 -25 0 -30 4 -30 25 0 21 -5 25 -30 25 -25
0 -30 -4 -30 -25z"/>
<path d="M3578 2543 c-2 -22 -9 -29 -30 -31 -23 -3 -28 -8 -28 -32 0 -24 5
-29 28 -32 21 -2 28 -9 30 -30 3 -23 8 -28 32 -28 24 0 29 5 32 28 2 21 9 28
31 30 22 3 27 8 27 32 0 24 -5 29 -27 32 -22 2 -29 9 -31 31 -3 22 -8 27 -32
27 -24 0 -29 -5 -32 -27z"/>
<path d="M8925 2561 c-8 -15 3 -31 21 -31 9 0 14 7 12 17 -4 20 -24 28 -33 14z
m25 -11 c0 -5 -4 -10 -10 -10 -5 0 -10 5 -10 10 0 6 5 10 10 10 6 0 10 -4 10
-10z"/>
<path d="M1028 2509 c-82 -32 -98 -51 -78 -90 16 -28 60 -22 153 20 55 25 67
34 67 54 0 55 -33 58 -142 16z"/>
<path d="M6029 2525 c-77 -42 -42 -165 46 -165 39 0 65 18 81 55 17 41 7 73
-32 104 -31 24 -58 26 -95 6z"/>
<path d="M3766 2498 c-19 -38 -22 -143 -4 -154 7 -5 21 -9 32 -10 11 0 22 -6
24 -12 2 -8 8 -7 19 3 8 8 23 15 34 15 17 0 19 8 19 69 0 39 -4 73 -10 76 -5
3 -10 15 -10 26 0 16 -7 19 -44 19 -40 0 -46 -3 -60 -32z m67 5 c-7 -2 -19 -2
-25 0 -7 3 -2 5 12 5 14 0 19 -2 13 -5z"/>
<path d="M10160 2520 c0 -5 -7 -10 -15 -10 -9 0 -25 -16 -36 -35 -12 -19 -25
-35 -30 -35 -14 0 -10 -43 7 -65 12 -16 18 -18 34 -7 24 15 92 16 106 2 7 -7
19 -6 37 2 25 12 27 17 27 76 l0 62 -55 0 c-30 0 -55 5 -55 10 0 6 -4 10 -10
10 -5 0 -10 -4 -10 -10z"/>
<path d="M8942 2502 c-1 -13 -12 -36 -23 -52 -21 -27 -21 -30 -6 -54 9 -13 25
-27 36 -31 20 -6 68 12 58 22 -3 2 -15 0 -26 -7 -31 -16 -61 3 -61 40 0 16 5
32 10 35 6 3 10 1 10 -4 0 -6 11 -11 25 -11 18 0 31 -9 43 -30 17 -30 32 -39
32 -20 0 6 -4 10 -8 10 -5 0 -14 11 -20 25 -8 17 -20 25 -36 25 -21 0 -25 5
-29 38 -2 20 -4 27 -5 14z"/>
<path d="M3284 2496 c-3 -7 -4 -38 -2 -67 l3 -54 84 -3 c95 -3 101 0 101 65 0
71 -2 73 -96 73 -62 0 -86 -4 -90 -14z"/>
<path d="M4920 2480 c0 -15 5 -20 18 -18 9 2 17 10 17 18 0 8 -8 16 -17 18
-13 2 -18 -3 -18 -18z"/>
<path d="M1519 2469 c-6 -12 -35 -47 -64 -79 -59 -64 -79 -96 -67 -104 14 -8
63 32 129 107 49 55 60 73 52 84 -17 19 -37 16 -50 -8z"/>
<path d="M5570 2471 c0 -11 -5 -21 -12 -23 -7 -3 -14 -31 -16 -69 -5 -78 5
-91 75 -91 61 0 75 18 67 87 -3 27 -12 65 -20 83 -13 28 -20 32 -54 32 -33 0
-40 -4 -40 -19z m53 -8 c-7 -2 -19 -2 -25 0 -7 3 -2 5 12 5 14 0 19 -2 13 -5z"/>
<path d="M9121 2438 c-60 -81 -61 -147 -4 -169 63 -24 133 13 133 70 0 37 -67
141 -91 141 -4 0 -21 -19 -38 -42z"/>
<path d="M12680 2455 c-10 -12 -9 -16 5 -21 23 -9 40 10 22 25 -11 9 -17 8
-27 -4z"/>
<path d="M4932 2413 c-2 -41 0 -43 26 -43 20 0 32 -8 44 -31 10 -17 22 -28 27
-25 15 10 -41 66 -66 66 -18 0 -22 7 -26 38 l-4 37 -1 -42z"/>
<path d="M7468 2348 c4 -124 6 -130 34 -126 22 3 23 8 26 92 2 50 8 96 13 103
17 20 1 33 -39 33 l-38 0 4 -102z"/>
<path d="M12521 2426 c-8 -10 -9 -16 -1 -21 15 -9 12 -64 -5 -81 -20 -21 -19
-57 3 -77 24 -22 56 -22 73 0 13 15 12 15 -8 3 -30 -19 -73 0 -73 33 0 31 4
34 41 29 21 -3 37 -14 48 -33 9 -16 23 -29 31 -28 11 0 11 2 2 6 -7 3 -19 18
-27 34 -11 20 -23 29 -40 29 -22 0 -25 4 -25 38 0 21 5 43 10 48 8 8 7 14 -3
23 -11 9 -17 8 -26 -3z m24 -6 c3 -5 1 -10 -4 -10 -6 0 -11 5 -11 10 0 6 2 10
4 10 3 0 8 -4 11 -10z"/>
<path d="M37 2423 c-4 -3 -3 -11 3 -18 5 -6 10 -51 12 -101 3 -88 3 -89 28
-89 25 0 25 1 28 89 2 50 7 95 12 101 14 17 1 25 -40 25 -20 0 -40 -3 -43 -7z"/>
<path d="M1155 2421 c-8 -15 3 -31 21 -31 9 0 14 7 12 17 -4 20 -24 28 -33 14z
m25 -11 c0 -5 -5 -10 -11 -10 -5 0 -7 5 -4 10 3 6 8 10 11 10 2 0 4 -4 4 -10z"/>
<path d="M7658 2423 c-2 -4 -1 -53 2 -107 4 -79 8 -101 22 -110 34 -21 46 10
49 119 l3 100 -36 3 c-20 2 -38 -1 -40 -5z"/>
<path d="M12299 2384 c-40 -59 -50 -121 -21 -147 31 -28 82 -31 120 -8 27 17
32 27 32 58 0 21 -9 52 -19 68 -23 37 -59 75 -71 75 -5 0 -23 -21 -41 -46z"/>
<path d="M12692 2394 c-1 -18 -9 -34 -17 -38 -9 -3 -15 -18 -15 -34 0 -52 61
-82 91 -45 13 15 12 15 -10 4 -36 -20 -73 0 -69 37 3 24 7 27 33 24 19 -2 41
-15 58 -35 l28 -32 -22 38 c-15 26 -28 37 -44 37 -20 0 -24 6 -28 38 -3 34 -4
34 -5 6z"/>
<path d="M5762 2387 c-35 -37 -28 -65 28 -119 27 -26 54 -48 60 -48 20 0 110
96 110 118 0 11 -11 34 -24 49 -23 26 -27 27 -56 16 -22 -8 -39 -9 -51 -3 -27
15 -44 12 -67 -13z"/>
<path d="M11398 2403 c-18 -3 -28 -10 -28 -21 0 -14 -8 -16 -50 -14 l-50 4 0
-81 0 -81 113 0 112 0 -3 95 c-3 85 -5 95 -22 95 -10 0 -24 2 -32 3 -7 2 -25
2 -40 0z"/>
<path d="M7247 2393 c-16 -4 -17 -15 -15 -91 l3 -87 65 0 65 0 3 86 c3 83 2
87 -20 93 -26 6 -74 6 -101 -1z"/>
<path d="M542 2374 c-47 -33 -18 -113 56 -156 29 -17 30 -17 70 12 48 34 62
57 62 99 0 42 -40 69 -80 54 -16 -6 -34 -7 -41 -2 -21 13 -42 11 -67 -7z"/>
<path d="M4907 2383 c-16 -15 -6 -62 15 -77 28 -20 39 -20 64 -1 18 14 17 15
-7 6 -39 -14 -73 12 -65 50 6 30 4 34 -7 22z"/>
<path d="M5110 2370 c-11 -11 -20 -31 -20 -44 0 -27 36 -75 80 -106 l28 -20
41 30 c23 17 49 46 58 65 15 31 15 36 -1 60 -22 34 -42 41 -77 28 -17 -7 -31
-7 -35 -2 -10 16 -53 10 -74 -11z"/>
<path d="M9921 2358 c-80 -83 -82 -87 -57 -120 13 -18 46 -25 46 -10 0 13 78
13 99 1 14 -9 23 -8 45 6 25 16 27 22 24 74 l-3 56 -55 3 c-30 2 -57 8 -61 13
-3 6 -20 -5 -38 -23z"/>
<path d="M870 2368 c-10 -4 -24 -17 -31 -30 -6 -13 -21 -33 -32 -45 -18 -20
-19 -26 -7 -48 12 -23 50 -36 50 -17 0 10 93 2 104 -9 6 -5 18 -2 29 9 10 9
22 15 26 12 11 -9 12 101 1 115 -12 15 -111 24 -140 13z"/>
<path d="M1172 2353 c-1 -18 -6 -33 -12 -33 -18 0 -30 -38 -20 -64 11 -31 50
-42 82 -25 12 7 29 12 36 11 8 -2 4 10 -10 32 -15 23 -31 36 -45 36 -18 0 -23
7 -26 38 -3 36 -4 36 -5 5z m28 -53 c11 0 24 -9 30 -21 9 -17 8 -23 -7 -35
-26 -19 -50 -17 -66 7 -18 25 -11 63 10 55 8 -3 23 -6 33 -6z"/>
<path d="M2895 2355 c-45 -44 -29 -116 30 -141 44 -18 90 -3 110 37 21 40 19
63 -11 98 -34 41 -92 44 -129 6z"/>
<path d="M3165 2334 c-122 -143 -143 -179 -86 -149 38 19 156 151 156 173 0
33 -31 22 -70 -24z"/>
<path d="M11043 2367 c-12 -5 -27 -22 -33 -37 -7 -16 -18 -31 -26 -34 -20 -8
-17 -50 5 -70 16 -14 21 -15 31 -4 14 15 87 12 107 -4 8 -6 20 -4 37 7 23 15
26 24 26 76 0 39 -4 61 -12 64 -31 9 -116 11 -135 2z"/>
<path d="M5380 2350 c0 -11 -5 -20 -10 -20 -7 0 -10 -27 -8 -72 l3 -73 65 0
65 0 3 73 c2 45 -1 72 -8 72 -5 0 -10 9 -10 20 0 17 -7 20 -50 20 -43 0 -50
-3 -50 -20z m63 3 c-7 -2 -19 -2 -25 0 -7 3 -2 5 12 5 14 0 19 -2 13 -5z"/>
<path d="M3487 2353 c-4 -3 -7 -34 -7 -69 0 -72 3 -74 91 -74 86 0 99 9 99 73
0 29 -5 58 -12 65 -13 13 -159 17 -171 5z"/>
<path d="M9287 2342 c-31 -35 -21 -71 33 -124 l51 -49 44 32 c24 17 51 47 61
67 15 33 15 36 -3 61 -22 28 -66 39 -88 21 -9 -7 -15 -8 -20 0 -10 17 -61 12
-78 -8z"/>
<path d="M9536 2345 c-13 -34 -6 -152 10 -185 l17 -33 14 34 c9 21 13 61 11
114 -3 73 -5 80 -24 83 -13 2 -24 -4 -28 -13z"/>
<path d="M9654 2337 c-3 -8 -4 -39 -2 -68 l3 -54 90 0 90 0 0 65 0 65 -88 3
c-68 2 -89 0 -93 -11z"/>
<path d="M3301 2267 c-92 -35 -112 -57 -85 -96 20 -28 25 -27 125 13 75 30 84
37 87 62 3 18 -2 33 -14 41 -22 16 -14 18 -113 -20z"/>
<path d="M5632 2254 c-1 -18 -9 -34 -17 -38 -20 -7 -19 -60 1 -80 19 -20 58
-21 74 -2 10 13 7 13 -18 4 -36 -14 -62 2 -62 37 0 29 5 32 40 27 20 -3 36
-14 47 -33 10 -16 21 -29 25 -29 5 0 -2 16 -14 35 -15 22 -31 35 -45 35 -18 0
-23 7 -26 38 -3 34 -4 34 -5 6z"/>
</g>
</svg>
